<svg xmlns="http://www.w3.org/2000/svg" xmlns:xlink="http://www.w3.org/1999/xlink" version="1.1" id="icon-local" x="0px" y="0px" viewBox="0 0 77 68" style="enable-background:new 0 0 77 68;" xml:space="preserve" class="tricolor-icon injected-svg" data-src="/img/icon-local.svg" role="img">
<style type="text/css">
	.st0{fill:#FFFFFF;}
	.st1{fill:#F5A800;}
</style>
<polygon class="st0 fill-white" points="61.12,1.5 15.87,1.5 15.87,51.29 18.52,51.29 18.52,58.17 28.75,58.17 28.75,51.29 31.48,51.29  27.71,66.87 48.85,66.87 45.38,51.29 48.85,51.29 48.85,58.08 59.08,58.08 59.08,51.29 61.12,51.29 "></polygon>
<rect x="26.7" y="28.3" class="st1 fill-brand" width="11.8" height="11.8"></rect>
<rect x="32" y="60.5" class="st2 fill-black" width="13.02" height="2.04"></rect>
<rect x="33.98" y="53.15" class="st2 fill-black" width="9.07" height="2.04"></rect>
<rect x="34.7" y="45.8" class="st2 fill-black" width="7.62" height="2.04"></rect>
<path class="fill-black" d="M14.65,0.13v51.58h2.59v7.74h11.51L27.02,68h22.99l-1.73-8.56h11.87v-7.74h2.23V0.13H14.65z M30.23,52.12  l-0.66,3.27v-3.27H30.23z M29.51,65.96l4.53-22.4h8.94l4.53,22.4H29.51z M41.36,28.3v-6.05h6.05v6.05H41.36z M41.36,38.46v-6.08h7.1  v6.08H41.36z M49.44,30.34V20.22H39.32v7.42H25.68v10.83h-2.02V9.15h29.71v29.31H50.5v-8.12H49.44z M27.71,29.67h9.57v8.79h-9.57  V29.67z M46.8,52.12h0.66v3.28L46.8,52.12z M59.32,48.65h-2.23v7.74h-6.57v-4.26h3.08v-2.04h-7.01v1.02l-1.94-9.58h5.85h5.93V6.1  H20.6v35.42h5.08h6.7l-1.94,9.58v-1.02h-7.01v2.04h3.08v4.26h-6.22v-7.74h-2.59V3.18h41.62V48.65z"></path>
</svg>