<svg xmlns="http://www.w3.org/2000/svg" xmlns:xlink="http://www.w3.org/1999/xlink" version="1.1" id="icon-packing" x="0px" y="0px" viewBox="0 0 77 68" style="enable-background:new 0 0 77 68;" xml:space="preserve" class="tricolor-icon injected-svg" data-src="/img/icon-packing.svg" role="img">
<style type="text/css">
	.st0{fill:#FFFFFF;}
	.st1{fill:#F5A800;}
</style>
<polygon class="st0 fill-white" points="20.19,50.64 20.19,42.25 9.4,34 9.4,43.16 "></polygon>
<polygon class="st0 fill-white" points="54.57,50.64 54.57,42.25 65.36,34 65.36,43.16 "></polygon>
<path class="st0 fill-white" d="M45.38,18.97c1.52-1.82,2.44-4.16,2.44-6.71c0-5.78-4.69-10.47-10.47-10.47c-5.78,0-10.47,4.69-10.47,10.47  c0,2.63,0.97,5.02,2.57,6.86c-3.03,1.63-10.86,6.57-8.91,13.38l2.2,9.83h29.44l2.38-11.23C54.57,31.09,55.34,23.01,45.38,18.97z"></path>
<rect x="20.19" y="42.25" class="st1 fill-brand" width="34.6" height="24.11"></rect>
<path class="fill-black" d="M66.73,31.57l-12.52,9.32h-0.33l1.99-9.67c0.72-4.64-3.32-10.08-8.79-12.32c1.34-1.92,2.14-4.26,2.14-6.78  c0-6.54-5.32-11.86-11.86-11.86c-6.54,0-11.87,5.32-11.87,11.86c0,2.52,0.8,4.86,2.15,6.79c-5.46,2.25-9.48,7.68-8.75,12.38  l1.98,9.6h-0.33L8.02,31.57v11.59l10.52,7.48v17.1h37.66v-17.1l10.52-7.48V31.57z M37.36,3.26c4.89,0,8.86,3.98,8.86,8.86  s-3.98,8.86-8.86,8.86c-4.89,0-8.87-3.98-8.87-8.86S32.47,3.26,37.36,3.26z M21.85,30.76c-0.49-3.15,2.95-7.94,8.01-9.45  c2.05,1.67,4.66,2.68,7.5,2.68c2.85,0,5.46-1.01,7.51-2.69c5.08,1.5,8.53,6.3,8.05,9.39l-2.11,10.2h-5.42l1.59-8.53  c0.15-0.81-0.38-1.6-1.2-1.75c-0.81-0.15-1.6,0.38-1.75,1.2l-1.7,9.08h-9.92l-1.7-9.08c-0.15-0.81-0.93-1.35-1.75-1.2  c-0.81,0.15-1.35,0.94-1.2,1.75l1.59,8.53h-5.42L21.85,30.76z M11.02,41.61v-4.07l7.52,5.6v3.82L11.02,41.61z M53.21,64.74H21.55  V52.77v-8.89h31.66v8.89V64.74z M63.73,41.61l-7.52,5.35v-3.82l7.52-5.6V41.61z"></path>
</svg>