<svg xmlns="http://www.w3.org/2000/svg" xmlns:xlink="http://www.w3.org/1999/xlink" version="1.1" id="icon-junk-removal" x="0px" y="0px" viewBox="0 0 100 100" style="enable-background:new 0 0 100 100;" xml:space="preserve" class="tricolor-icon injected-svg" data-src="/img/icon-service-junk-removal.svg" role="img">
<style type="text/css">
	.st0{fill:#FFFFFF;}
	.st1{fill:#F5A800;}
</style>
<path class="st0 fill-white" d="M25,61.8h46.8V44.6h15.1l11.9,13v13.4h-6.1c0,0-0.9,8.3-7.5,8.3c0,0-5.5,0.1-8.6-7.3H54.4c0,0-0.6,6.9-8,6.9  c0,0-3.8-1.9-7.5-5.7c0,0-7.4,12.6-16.6,0C25,61.8,25,61.8,25,61.8z"></path>
<path class="fill-black" d="M24.4,77.4c1.6,1.8,4,3,6.6,3c3.4,0,6.4-1.9,7.9-4.9c1.4,2.9,4.4,4.9,7.9,4.9c4.3,0,7.9-3.1,8.6-7.3h14.3h1.7h5.2  c0.8,4.2,4.3,7.3,8.6,7.3c4.3,0,7.8-3.1,8.6-7.1h6.2V56.4l0,0l-13.1-14H72.9v-8.3h-3.4v8.3v5.8v12.5h-7.3l6.6-2.9L53.5,21.5L0,44.3  l15.4,36.3l8.8-3.8L24.4,77.4z M31,77c-1.8,0-3.5-0.9-4.4-2.3l9.7-4.2c0.1,0.4,0.1,0.6,0.1,1C36.5,74.6,34,77,31,77z M46.7,77  c-3,0-5.5-2.5-5.5-5.5c0-1.4,0.6-2.9,1.6-3.8l3.9-1.7c3,0,5.5,2.5,5.5,5.5S49.7,77,46.7,77z M55.4,69.8c-0.4-1.7-1.3-3.4-2.5-4.5  l2.5-1.2h14.3v5.7H55.4z M85.1,77c-3,0-5.5-2.5-5.5-5.5s2.5-5.5,5.5-5.5c3,0,5.5,2.5,5.5,5.5S88.1,77,85.1,77z M96.6,69.9h-2.7  c-0.8-4-4.4-7.1-8.6-7.1c-4.3,0-7.8,3-8.6,7.1h-3.5V48.1v-2.3h12.5l11.2,12.1L96.6,69.9L96.6,69.9z"></path>
<path d="M93.3,56.8H74.9v-9.7h8.8L93.3,56.8z M77.1,54.6h10.8l-5.2-5.2H77C77.1,49.4,77.1,54.6,77.1,54.6z"></path>
<path class="st1 fill-brand" d="M13.9,48.4l38.5-16.6L51.3,29L12.8,45.8c-2.3,1-2.3,3.6-2.2,4.8c0.1,3.2,0.1,5.2,0.4,8.7v0.9l2.9-1.3v-0.4  c-0.3-3.5-0.3-4.7-0.4-8C13.4,48.6,13.8,48.5,13.9,48.4z"></path>
</svg>