<svg xmlns="http://www.w3.org/2000/svg" xmlns:xlink="http://www.w3.org/1999/xlink" version="1.1" id="icon-storage" x="0px" y="0px" viewBox="0 0 77 68" style="enable-background:new 0 0 77 68;" xml:space="preserve" class="tricolor-icon injected-svg" data-src="/img/icon-storage.svg" role="img">
<style type="text/css">
	.st0{fill:#FFFFFF;}
	.st1{fill:#F5A800;}
	.st2{fill:none;}
	.st3{fill:#231F20;}
</style>
<polygon class="st0 fill-white" points="75.5,9.6 73.1,41.7 29.3,65.1 4.9,50.9 2.1,14.3 50.6,6.7 "></polygon>
<polygon class="st1 fill-brand" points="27.5,20.1 28.9,65.1 43.6,57.6 43.6,16.6 "></polygon>
<line class="st2 fill-black" x1="13.3" y1="17" x2="15.5" y2="56.4"></line>
<path class="st3 fill-black" d="M77,8.2L50.2,5.5L0,12.9l3.5,38.9L28.9,67l20.3-10.7c0,1.9,1.6,3.4,3.4,3.4H65c1.9,0,3.4-1.5,3.4-3.4V46  l5.9-3.1L77,8.2z M50.2,8.5L67,10.2l-39.3,8.7L9.4,14.5L50.2,8.5z M26.3,21.6l1,40.9l-10.4-6.2H17l-2.1-37.4L26.3,21.6z M3.3,16.2  l8.5,2l2.1,36.3L6.3,50L3.3,16.2z M67.4,43.2c-0.3-0.3-0.7-0.6-1.1-0.7v-3.2c0-4.2-3.4-7.5-7.5-7.5c-4.2,0-7.5,3.4-7.5,7.5v3.2  c-1.2,0.5-2.1,1.7-2.1,3.2v7.2l-18.9,10l-1-41.2l44.5-9.8L71.5,41L67.4,43.2z"></path>
<path class="st0 fill-white" d="M58.8,35.1c2.4,0,4.3,1.9,4.3,4.3v2.9h-8.5v-2.9C54.5,37,56.5,35.1,58.8,35.1z"></path>
<path class="st0 fill-white" d="M59.9,51.1v3.8c0,0.6-0.5,1.1-1.1,1.1s-1.1-0.5-1.1-1.1v-3.8c-0.7-0.4-1.1-1.1-1.1-1.9c0-1.2,1-2.2,2.2-2.2  s2.2,1,2.2,2.2C61,50,60.6,50.7,59.9,51.1z"></path>
</svg>