<svg xmlns="http://www.w3.org/2000/svg" xmlns:xlink="http://www.w3.org/1999/xlink" version="1.1" id="icon-service-internal" x="0px" y="0px" viewBox="0 0 77 68" style="enable-background:new 0 0 77 68;" xml:space="preserve" class="tricolor-icon injected-svg" data-src="/img/icon-service-internal2.svg" role="img">
<style type="text/css">
	.st0{fill:#FFFFFF;}
	.st1{fill:#F5A800;}
</style>
<g>
	<path class="st0 fill-white" d="M24.6,22.9l18.2-4.7c3.8-0.2,5.1,3.6,5.1,3.7l2.1,6.3c-0.6,0.8-1,1.7-1.3,3c-0.3,1.4-0.5,2.7-0.6,3.6   c-1.8-0.1-5,0.1-10.4,1.5h0c-5.4,1.4-8.3,2.7-9.9,3.7c-0.6-0.8-1.3-1.7-2.2-2.9c-0.8-1-1.6-1.6-2.5-2l-1.2-6.5   C21.8,28.5,21.2,24.5,24.6,22.9z"></path>
	<path class="st0 fill-white" d="M57.3,45.4l0,0.1c0.2,0.7,0.4,2.4-0.1,3.3c-0.1,0.2-0.3,0.4-0.6,0.4C53.5,49.9,42.4,52.8,42,53   c-0.5,0.1-11.6,2.9-14.7,3.8c-0.3,0.1-0.5,0.1-0.8-0.1c-0.8-0.5-1.5-2.1-1.6-2.8l-3-9.1l-0.4-1h-1.1c-0.4,0-2.2-0.1-2.7-2.2   c-0.6-2.2,0.9-3.4,1.1-3.4c0.1,0,0.8-0.5,1.8-0.5c0.8,0,1.8,0.3,2.7,1.4c2.4,3,2.9,3.8,2.9,3.8l1.5,4l1.1-3.8   c0.4-0.3,2.3-1.9,9.6-3.8c7.2-1.9,9.7-1.4,10.2-1.3l2.6,2.7l-0.3-4c0,0,0-0.9,0.7-4.8c0.5-2.9,3-3,3.4-3c0.2,0,2.1,0.3,2.7,2.5   c0.5,2.1-1,3.1-1.3,3.2l-1,0.5L57.3,45.4z"></path>
</g>
<rect x="24.1" y="47.8" transform="matrix(0.9689 -0.2474 0.2474 0.9689 -11.2836 11.9062)" class="st1 fill-brand" width="35.4" height="6.1"></rect>
<circle class="st0 fill-white" cx="66.9" cy="21.9" r="4.6"></circle>
<path class="fill-black" d="M58.7,36.6c1.3-1.1,2.6-3.1,1.9-5.9c-0.8-3.5-3.8-4.7-5.4-4.8c-0.7,0-1.8,0.1-2.8,0.5L50.7,21c-0.7-2.2-3.4-6.2-8.3-5.8  L23.7,20l-0.2,0.1c-4.5,2-5,6.8-4.5,9.1l1,5.5c-1.1,0.1-2.1,0.5-2.7,0.9c-1.2,0.8-3.3,3.3-2.4,6.8c0.8,2.8,2.9,3.9,4.5,4.3l2.6,8  c0.1,0.6,1,3.4,3,4.6c0.6,0.4,1.3,0.5,2,0.5c0.4,0,0.7-0.1,1.1-0.2c0.1,0,0.2-0.1,0.3-0.1l0.4,1.5l4.8-1.2l-0.4-1.5  c4.3-1.1,9.4-2.4,9.5-2.4c0.1,0,5.1-1.3,9.4-2.4l0.4,1.5l4.8-1.2l-0.4-1.5c0.2,0,0.3-0.1,0.4-0.1c1.1-0.3,2-0.9,2.5-1.8  c1.2-2,0.6-4.9,0.4-5.5L58.7,36.6z M24.6,22.9l18.2-4.7c3.8-0.2,5.1,3.6,5.1,3.7l2.1,6.3c-0.6,0.8-1,1.7-1.3,3  c-0.3,1.4-0.5,2.7-0.6,3.6c-1.8-0.1-5,0.1-10.4,1.5h0c-5.4,1.4-8.3,2.7-9.9,3.7c-0.6-0.8-1.3-1.7-2.2-2.9c-0.8-1-1.6-1.6-2.5-2  l-1.2-6.5C21.8,28.5,21.2,24.5,24.6,22.9z M57.3,45.4l0,0.1c0.2,0.7,0.4,2.4-0.1,3.3c-0.1,0.2-0.3,0.4-0.6,0.4  C53.5,49.9,42.4,52.8,42,53c-0.5,0.1-11.6,2.9-14.7,3.8c-0.3,0.1-0.5,0.1-0.8-0.1c-0.8-0.5-1.5-2.1-1.6-2.8l-3-9.1l-0.4-1h-1.1  c-0.4,0-2.2-0.1-2.7-2.2c-0.6-2.2,0.9-3.4,1.1-3.4c0.1,0,0.8-0.5,1.8-0.5c0.8,0,1.8,0.3,2.7,1.4c2.4,3,2.9,3.8,2.9,3.8l1.5,4  l1.1-3.8c0.4-0.3,2.3-1.9,9.6-3.8c7.2-1.9,9.7-1.4,10.2-1.3l2.6,2.7l-0.3-4c0,0,0-0.9,0.7-4.8c0.5-2.9,3-3,3.4-3  c0.2,0,2.1,0.3,2.7,2.5c0.5,2.1-1,3.1-1.3,3.2l-1,0.5L57.3,45.4z"></path>
<path class="st0 fill-white" d="M12.7,36.6c-0.5-0.2-1.2-0.3-1.9-0.2c0.5,0.4,1,0.9,1.2,1.6c0,0,0.6,1.4,1.6,3.6C14.5,39.5,14,37.2,12.7,36.6z"></path>
<path class="st0 fill-white" d="M7.2,56L7.8,56c0.2,0.1,0.5,0.1,0.8,0C9,56.1,9.1,56,9.1,56l0.2-0.1c0.1,0,0.2-0.1,0.2-0.1l3-2.2l-1.8,8.8  c-0.2,0.5-0.2,1.1,0,1.6c0.2,0.5,0.6,0.9,1.2,1.2c0.3,0.1,0.7,0.2,1,0.2c0.8-0.1,1.5-0.6,1.8-1.3l2-5C10.3,51.4,6.8,43.5,5.8,41.1  c-2,4.3-3.1,7.8-3.1,10.3C2.8,54.7,4.5,55.6,7.2,56z"></path>
<path class="fill-black" d="M23.6,56c-3.3-3.4-5.8-7.1-7.7-10.3l0.3-3.2c0.9-2.5,0.7-5.6-1-7.3c2.1-0.9,3.7-2.8,4-5.2c0.3-1.8-0.2-3.6-1.2-5.1  c-1.1-1.5-2.7-2.5-4.5-2.7c-1.8-0.3-3.6,0.2-5.1,1.2c-1.5,1.1-2.5,2.7-2.7,4.5c-0.3,1.8,0.2,3.6,1.2,5.1c0.4,0.5,0.9,1,1.4,1.4  c-1.6,0.7-3.1,2-4.1,4.1C1.4,43.9,0,48.2,0,51.5c0.2,6.2,5.2,6.9,6.8,7.2l0.3,0c0.5,0.1,1.1,0.2,1.5,0.1c0,0,0.1,0,0.1,0l-0.5,2.6  c-0.4,1.2-0.4,2.4,0.1,3.6c0.5,1.2,1.4,2.1,2.6,2.6c0.6,0.2,1.2,0.4,1.8,0.4c0.1,0,0.3,0,0.4,0c1.8-0.2,3.4-1.3,4-3l1.6-3.8  c0.6,0.5,1.4,0.8,2.2,0.8c0.1,0,0.2,0,0.3,0c0.8-0.1,1.5-0.4,2.1-0.9c0.7-0.6,1.1-1.5,1.1-2.4C24.6,57.5,24.2,56.6,23.6,56z   M13.7,41.6C12.6,39.4,12,38,12,38c-0.3-0.7-0.7-1.2-1.2-1.6c0.7-0.1,1.4,0,1.9,0.2C14,37.2,14.5,39.5,13.7,41.6z M8.1,28.1  C8.3,27,8.9,26,9.8,25.3c0.8-0.6,1.7-0.8,2.6-0.8c0.2,0,0.5,0,0.7,0.1h0c1.2,0.2,2.2,0.8,2.9,1.7c0.7,0.9,1,2.1,0.8,3.3  c-0.4,2.4-2.6,4-5,3.7C9.4,32.8,7.7,30.5,8.1,28.1z M14.8,63.9c-0.3,0.7-1,1.2-1.8,1.3c-0.3,0-0.7,0-1-0.2c-0.5-0.2-0.9-0.6-1.2-1.2  c-0.2-0.5-0.2-1.1,0-1.6l1.8-8.8l-3,2.2c-0.1,0.1-0.2,0.1-0.2,0.1L9.1,56c0,0-0.1,0.1-0.6,0.1c-0.3,0-0.5,0-0.8,0L7.2,56  c-2.7-0.4-4.4-1.3-4.5-4.5c0-2.5,1-6,3.1-10.3c1,2.4,4.5,10.3,11.1,17.8L14.8,63.9z"></path>
<path class="st0 fill-white" d="M21.7,59.1c-0.2,0.2-0.4,0.3-0.6,0.3c-0.3,0-0.6-0.1-0.8-0.3c-1.6-1.7-3.1-3.5-4.4-5.3c-1.1-1.5-2.1-3-3-4.4  c-3.3-5.3-5-9.6-5.1-9.8c-0.2-0.5,0.1-1.1,0.6-1.3c0.1,0,0.2-0.1,0.3-0.1c0.4,0,0.8,0.2,0.9,0.6c0,0.1,1.2,3.1,3.5,7.2  c0.7,1.2,1.4,2.4,2.3,3.8c1.7,2.6,3.8,5.3,6.2,7.9c0.2,0.2,0.3,0.4,0.3,0.7C22,58.7,21.9,58.9,21.7,59.1z"></path>
<path class="st0 fill-white" d="M57.2,46.2c-1.7,0.2-2.7-0.3-2.9-2c-0.1-1.6,0.4-2.3,1.9-2.8l6.4-2l0.9-6.1c0.5-3.2,2-4.3,4.1-4.3  c2.5,0.1,4.1,1.4,4.4,4c0.4,3.2,0.3,8.8,0.1,11c-0.1,1.2-0.3,2.3-1.2,3.7l-4.6,6.3l0.6,9.2c0.1,1.8-1.2,3.2-2.7,3.3  c-1.4,0.1-2.8-0.9-3-2.9C61,61,60.3,53.1,60.3,53.1c-0.1-0.9,0.1-1.8,0.5-2.5l2.4-5.3L57.2,46.2z"></path>
<path class="st0 fill-white" d="M66.9,53.4l4,7.7c0.6,1.4,2.2,2.1,3.5,1.4c1.3-0.7,1.9-2.4,1.3-3.8L71,47.8L66.9,53.4z"></path>
<path class="fill-black" d="M55.9,40.4l5.7-1.8l0.8-5.4c0.4-2.4,1.4-4,2.9-4.7c-2.9-0.7-5.1-3.3-5.1-6.4c0-3.7,3-6.6,6.6-6.6c3.7,0,6.6,3,6.6,6.6  c0,2.8-1.8,5.3-4.4,6.2c2.2,0.6,3.6,2.2,3.9,4.7c0.4,3.3,0.3,9.1,0.1,11.2c-0.1,1.2-0.3,2.2-0.9,3.5l4.4,10.2c0.8,2,0,4.3-1.8,5.2  c-0.5,0.3-1,0.4-1.6,0.4c-0.4,0-0.8-0.1-1.2-0.2c-0.9-0.4-1.7-1.1-2.2-2.1l-2.3-4.4l0.4,6.5c0.1,2.3-1.6,4.2-3.7,4.4  c-0.1,0-0.2,0-0.2,0c-1.8,0-3.7-1.3-3.9-3.9c-0.2-2.6-0.9-10.5-0.9-10.5c-0.1-1.1,0.1-2.2,0.6-3.1l1.6-3.5c-1.5,0.3-3.2,0.5-4.1,0.6  c-1.3,0.2-2.2,0-3-0.6c-0.7-0.5-1-1.3-1.1-2.4C53.1,42.3,53.9,41.1,55.9,40.4z M71.4,22.1c0-2.5-2-4.5-4.5-4.5c-2.5,0-4.5,2-4.5,4.5  s2,4.5,4.5,4.5S71.4,24.6,71.4,22.1z M71.9,60.3C71.9,60.3,71.9,60.3,71.9,60.3c0.2,0.5,0.6,0.9,1,1c0.2,0.1,0.6,0.2,1.1-0.1  c0.8-0.4,1.2-1.5,0.8-2.4l-3.9-9l-2.6,3.5L71.9,60.3z M55.4,44.2c0,0.4,0.2,0.7,0.3,0.9c0.2,0.2,0.7,0.2,1.3,0.2  c2-0.3,7.7-1.2,7.7-1.2c1.2-0.2,1.4-1,1.7-2.6l0-0.1c0.1-0.6,0.2-1.5,0.4-2.5c0.1-0.6,0.6-1,1.2-0.9c0.6,0.1,1,0.6,0.9,1.2  c-0.1,1-0.3,1.9-0.4,2.6l0,0.1c-0.2,1.5-0.6,3.9-3.4,4.4c-0.1,0-0.5,0.1-1.2,0.2l-2.2,4.8c0,0,0,0,0,0.1c-0.3,0.6-0.4,1.2-0.4,1.9  c0,0,0.7,7.9,0.9,10.5c0.1,1.4,1.1,2,1.9,1.9c0.8-0.1,1.7-0.9,1.7-2.1l-0.6-9.2c0-0.2,0.1-0.5,0.2-0.7l4.5-6.2c0.8-1.2,0.9-2,1-3.2  c0.1-2.3,0.3-7.8-0.1-10.8c-0.3-2-1.3-3-3.3-3.1c-1.2,0-2.6,0.4-3,3.3l-0.9,6.1c-0.1,0.4-0.4,0.7-0.7,0.9l-6.4,2  C55.5,42.8,55.3,43.1,55.4,44.2z"></path>
<circle class="st0 fill-white" cx="12.4" cy="28.8" r="4.6"></circle>
</svg>